<?xml version="1.0" encoding="UTF-8" standalone="no"?>
<svg
   xmlns:dc="http://purl.org/dc/elements/1.1/"
   xmlns:cc="http://creativecommons.org/ns#"
   xmlns:rdf="http://www.w3.org/1999/02/22-rdf-syntax-ns#"
   xmlns:svg="http://www.w3.org/2000/svg"
   xmlns="http://www.w3.org/2000/svg"
   xmlns:sodipodi="http://sodipodi.sourceforge.net/DTD/sodipodi-0.dtd"
   xmlns:inkscape="http://www.inkscape.org/namespaces/inkscape"
   width="178.47749mm"
   height="178.38478mm"
   viewBox="0 0 178.47749 178.38478"
   version="1.1"
   id="svg8"
   inkscape:version="1.0.2 (e86c870879, 2021-01-15)"
   sodipodi:docname="zer0pts_logo_white.svg">
  <defs
     id="defs2" />
  <sodipodi:namedview
     id="base"
     pagecolor="#ffffff"
     bordercolor="#666666"
     borderopacity="1.0"
     inkscape:pageopacity="0.0"
     inkscape:pageshadow="2"
     inkscape:zoom="0.99780624"
     inkscape:cx="283.27837"
     inkscape:cy="355.82309"
     inkscape:document-units="mm"
     inkscape:current-layer="layer1"
     showgrid="false"
     inkscape:window-width="2560"
     inkscape:window-height="1416"
     inkscape:window-x="1680"
     inkscape:window-y="0"
     inkscape:window-maximized="0"
     fit-margin-top="0"
     fit-margin-left="0"
     fit-margin-right="0"
     fit-margin-bottom="0"
     inkscape:pagecheckerboard="true"
     inkscape:document-rotation="0" />
  <metadata
     id="metadata5">
    <rdf:RDF>
      <cc:Work
         rdf:about="">
        <dc:format>image/svg+xml</dc:format>
        <dc:type
           rdf:resource="http://purl.org/dc/dcmitype/StillImage" />
        <dc:title></dc:title>
      </cc:Work>
    </rdf:RDF>
  </metadata>
  <g
     inkscape:label="Layer 1"
     inkscape:groupmode="layer"
     id="layer1"
     transform="translate(-20.818778,-100.16079)">
    <path
       style="fill:#ffffff;stroke-width:0.26458332;fill-opacity:1"
       d="m 101.77009,278.26119 c -2.66694,-0.24871 -7.580421,-0.98093 -7.755196,-1.15571 -0.06257,-0.0626 -0.03054,-0.66877 0.07119,-1.34711 l 0.184951,-1.23333 0.971405,0.15337 c 5.82588,0.91983 7.94626,1.07272 14.99432,1.08116 7.93926,0.01 10.48212,-0.22585 17.25312,-1.59694 15.51781,-3.14228 30.59681,-11.015 42.1971,-22.03104 20.83718,-19.78772 30.52475,-48.8711 25.73249,-77.25237 -0.35247,-2.08743 -0.94019,-4.97947 -1.30605,-6.42674 -0.36586,-1.44728 -0.66521,-2.72111 -0.66521,-2.83073 0,-0.23722 2.15431,-0.84578 2.41774,-0.68297 0.28785,0.1779 1.4883,5.46319 2.19231,9.65227 5.13861,30.57613 -5.92441,61.45443 -29.37211,81.98133 -12.29346,10.7621 -27.72474,18.08546 -43.76502,20.76996 -6.77794,1.13436 -16.64197,1.52586 -23.15104,0.91885 z M 75.451388,271.65998 C 48.796969,260.40289 29.212366,236.94376 22.939693,208.75963 17.4307,184.00684 22.791137,157.6116 37.420302,137.45592 l 1.30335,-1.79572 0.963843,0.71666 c 0.530114,0.39417 1.002715,0.74503 1.050224,0.77968 0.04751,0.0346 -0.921753,1.53225 -2.15392,3.32801 -10.888906,15.86945 -16.016505,34.31269 -14.968175,53.83838 1.758093,32.74538 22.302763,61.95148 52.556026,74.71313 1.491589,0.62919 2.711979,1.28735 2.711979,1.46258 0,0.3189 -0.745492,2.24215 -0.863446,2.22755 -0.03443,-0.004 -1.190384,-0.48406 -2.568795,-1.06621 z M 103.2253,267.52766 C 84.331636,265.5994 67.772672,257.91004 54.91819,245.09566 42.147199,232.3645 34.487538,216.85974 32.147722,199.00344 c -0.613675,-4.68325 -0.615815,-14.60172 -0.0042,-19.22651 2.44293,-18.47092 10.213917,-34.01245 23.383716,-46.76607 11.659733,-11.29127 25.640382,-18.3649 41.480296,-20.98731 21.381756,-3.53991 42.640026,1.60104 60.060416,14.52458 15.80953,11.72851 27.01176,29.9911 30.27012,49.34831 0.9366,5.56407 1.15939,9.01546 1.00606,15.58509 -0.29166,12.49692 -2.82141,22.41771 -8.60855,33.7597 -11.81695,23.15957 -34.79041,39.07722 -60.68883,42.04954 -3.29339,0.37798 -13.0131,0.52351 -15.8215,0.23689 z m 15.26613,-2.86502 c 12.77729,-1.63022 23.42213,-5.50662 33.43023,-12.17386 4.49203,-2.99253 6.95288,-4.98488 10.93227,-8.851 4.11123,-3.99421 7.01632,-7.47317 10.16682,-12.17515 6.82996,-10.19341 10.93401,-21.43052 12.37025,-33.87036 0.60492,-5.23952 0.42581,-14.49454 -0.37896,-19.58151 -3.45194,-21.81973 -15.94994,-40.97458 -34.42633,-52.76293 -3.45257,-2.20282 -10.29958,-5.58881 -14.1552,-7.00006 -4.36315,-1.59702 -9.07599,-2.8617 -13.36565,-3.58665 -18.64753,-3.15144 -37.103126,0.44308 -53.126018,10.34712 -13.096399,8.09513 -23.887406,20.7175 -29.825963,34.88778 -2.449042,5.84378 -4.591614,14.05311 -5.453489,20.89521 -0.493003,3.91377 -0.41162,13.79914 0.148119,17.99166 1.129104,8.45714 3.230256,15.60075 6.789468,23.08324 11.111357,23.35927 32.901411,39.1918 58.717903,42.66407 4.65438,0.62601 13.78656,0.69255 18.17655,0.13244 z m -0.44947,-45.77141 v -6.48229 h 1.05834 c 0.58208,0 1.05833,0.12212 1.05833,0.27137 0,0.15556 0.33316,0.0991 0.78061,-0.13229 1.92033,-0.99304 4.16909,-0.14755 5.23866,1.96963 2.06353,4.08471 -1.54904,8.92059 -5.23866,7.01262 l -0.78061,-0.40367 v 2.12346 2.12346 h -1.05833 -1.05834 z m 5.27612,0.80179 c 1.84222,-0.95265 1.67263,-4.63602 -0.25012,-5.43245 -0.8458,-0.35034 -2.18844,-0.15249 -2.63758,0.38869 -0.17885,0.2155 -0.26372,1.21637 -0.21672,2.5557 0.0718,2.04651 0.12383,2.22499 0.73872,2.53529 0.86769,0.43787 1.4501,0.42625 2.3657,-0.0472 z m -41.656326,1.75752 c -1.263427,-0.59714 -1.825506,-1.18842 -2.371158,-2.49435 -1.224836,-2.93144 0.670313,-6.40563 3.679235,-6.74478 3.157545,-0.35591 5.27713,1.32574 5.82604,4.62229 l 0.186068,1.11747 -4.046691,0.0731 -4.046691,0.0732 0.783474,0.87623 c 1.074063,1.20123 2.529623,1.39875 4.23255,0.57438 1.027774,-0.49754 1.277948,-0.5365 1.482241,-0.23084 0.735428,1.10033 0.726471,1.17232 -0.227119,1.82573 -1.281567,0.87814 -3.972253,1.02867 -5.497949,0.30756 z m 4.630209,-5.68819 c 0,-0.19292 -0.307248,-0.6394 -0.682773,-0.99219 -1.018025,-0.95638 -2.838961,-0.90679 -3.70576,0.10092 -0.351203,0.4083 -0.638551,0.85479 -0.638551,0.99219 0,0.13919 1.113198,0.24983 2.513542,0.24983 1.91098,0 2.513542,-0.0841 2.513542,-0.35075 z m 20.927667,5.62065 c -1.92154,-1.17145 -2.67142,-2.91456 -2.67142,-6.20981 0,-4.29534 1.78292,-6.733 4.92455,-6.733 1.60949,0 3.22329,0.929 3.99309,2.29867 1.28373,2.28409 1.28425,6.61138 10e-4,8.89448 -1.18938,2.1162 -4.24316,2.97147 -6.2473,1.74966 z m 3.39434,-1.68786 c 1.01545,-0.52511 1.60716,-2.11183 1.60716,-4.30977 v -1.77536 l -2.49147,2.48111 c -2.13913,2.13024 -2.44964,2.54807 -2.19573,2.95466 0.62163,0.99538 1.8927,1.26336 3.08004,0.64936 z m 0.80832,-8.35404 c -0.33316,-0.62253 -1.70636,-1.1415 -2.49599,-0.94331 -1.48294,0.37219 -2.25736,2.01155 -2.25994,4.78405 l -0.002,1.58227 2.49834,-2.48796 c 1.99436,-1.98607 2.45008,-2.57815 2.25907,-2.93505 z m 22.83825,10.07438 c -1.32932,-0.81054 -1.66649,-1.74684 -1.66649,-4.62778 v -2.52668 h -1.05834 c -1.03313,0 -1.05833,-0.022 -1.05833,-0.92604 0,-0.904 0.0252,-0.92604 1.05833,-0.92604 h 1.05834 v -1.85209 -1.85208 h 1.05833 1.05833 v 1.85208 1.85209 h 1.98438 1.98437 v 0.92604 0.92604 h -1.98437 -1.98438 v 2.50744 c 0,2.38069 0.0333,2.52929 0.65953,2.93958 0.88401,0.57922 1.87419,0.29976 2.37597,-0.67057 0.3639,-0.70371 0.47303,-0.75099 1.23137,-0.5335 0.45765,0.13125 0.87202,0.27857 0.92083,0.32738 0.0488,0.0488 -0.15344,0.57826 -0.44945,1.17654 -0.90709,1.8334 -3.38677,2.50612 -5.18842,1.40759 z m 10.3059,-0.043 c -1.49995,-0.57649 -1.54803,-0.65226 -1.07396,-1.69271 0.24343,-0.53429 0.43899,-0.65137 0.85989,-0.51485 2.59689,0.84229 3.58716,1.01019 4.55234,0.77183 0.75923,-0.1875 1.01955,-0.38689 1.01955,-0.78095 0,-0.43063 -0.2956,-0.59576 -1.5875,-0.8868 -3.17187,-0.71455 -3.64351,-0.88057 -4.26375,-1.50081 -0.91365,-0.91365 -0.86973,-2.44506 0.0966,-3.36689 0.40018,-0.38177 1.06277,-0.82076 1.47243,-0.97554 1.53717,-0.58078 4.76093,-0.21984 5.68517,0.63653 0.49141,0.45532 -0.12849,1.81729 -0.72244,1.58725 -2.23639,-0.86617 -4.91381,-0.71485 -4.91381,0.27772 0,0.43653 0.3972,0.59992 2.63215,1.08276 2.12708,0.45953 2.749,0.7045 3.24114,1.27666 0.66235,0.77002 0.81028,2.18929 0.32307,3.09963 -0.79422,1.48402 -4.66783,2.00583 -7.32084,0.98617 z m -77.589061,-0.71535 c 0,-0.74947 0.178671,-1.17871 0.688332,-1.65365 0.378585,-0.35278 1.522291,-1.56416 2.541575,-2.69195 l 1.853239,-2.05052 h -1.61553 -1.615532 v 0.92604 c 0,0.88194 -0.0441,0.92604 -0.926042,0.92604 h -0.926042 v -1.85208 -1.85208 h 4.101042 4.101042 v 0.87148 c 0,0.74069 -0.400413,1.29664 -2.66785,3.70417 l -2.667849,2.83268 h 1.741808 1.741807 v -0.92604 c 0,-0.88195 0.0441,-0.92604 0.926042,-0.92604 h 0.926042 v 1.85208 1.85208 h -4.101042 -4.101042 z m 25.135417,0.0862 c 0,-0.90399 0.02519,-0.92604 1.058333,-0.92604 h 1.058334 v -2.91042 -2.91041 h -1.058334 c -0.999537,0 -1.058333,-0.0441 -1.058333,-0.79375 v -0.79375 h 2.116667 2.116666 v 0.83238 0.83239 l 0.651321,-0.70279 c 0.8127,-0.87692 1.71265,-1.22772 3.13622,-1.22252 1.57943,0.006 1.84261,0.23416 1.47733,1.28202 -0.28688,0.82292 -0.33831,0.84795 -1.41172,0.68698 -2.5324,-0.37976 -3.853151,1.02694 -3.853151,4.10387 v 1.596 h 1.058331 c 1.03314,0 1.05834,0.022 1.05834,0.92604 v 0.92604 h -3.175004 -3.175 z m 12.620384,-30.77618 c -0.39735,-0.0765 -0.44955,-0.51446 -0.44955,-3.77134 0,-2.45263 -0.0952,-3.68477 -0.28457,-3.68477 -0.15651,0 -1.09413,-0.47281 -2.0836,-1.05069 -3.51529,-2.05305 -6.68524,-5.83246 -8.094292,-9.65052 -0.650623,-1.76298 -0.965726,-2.15264 -5.681665,-7.02587 l -4.992841,-5.15938 1.383139,-1.39511 1.383135,-1.39511 5.415034,5.43779 c 4.72017,4.74001 5.453576,5.58809 5.71538,6.60901 0.9874,3.85034 3.91925,7.52573 7.44703,9.33565 2.54869,1.30759 4.04082,1.67485 6.80471,1.67485 2.64638,0 4.18579,-0.34795 6.62766,-1.49806 4.54292,-2.13969 7.61259,-6.68074 8.19549,-12.12384 0.17178,-1.60406 0.3354,-1.9993 1.422,-3.43515 1.85902,-2.45651 2.50819,-4.14115 2.51144,-6.51732 0.004,-3.19301 -1.4481,-5.65655 -4.18069,-7.09088 -1.15274,-0.60508 -1.67068,-0.70691 -3.59569,-0.70691 -1.92501,0 -2.44295,0.10183 -3.59569,0.70691 -5.64239,2.96168 -5.66668,10.98533 -0.0423,13.98143 0.5457,0.29069 0.99218,0.58118 0.99218,0.64553 0,0.27111 -1.1407,3.19821 -1.32518,3.4005 -0.25271,0.27709 -1.43355,-0.32621 -3.93064,-2.0082 -4.03838,-2.72016 -6.72862,-3.42391 -10.28252,-2.68983 -2.35209,0.48583 -4.17336,1.34199 -5.60374,2.63426 -0.55812,0.50423 -1.07702,0.91677 -1.15311,0.91677 -0.17911,0 -6.261956,-7.58312 -6.426222,-8.01119 -0.10295,-0.26828 2.472859,-2.57214 2.875764,-2.57214 0.06781,0 1.03306,1.13109 2.144982,2.51354 1.111926,1.38245 2.081376,2.51354 2.154346,2.51354 0.073,0 0.69934,-0.28715 1.39194,-0.63812 2.13487,-1.08182 4.22663,-1.56113 6.92522,-1.58687 1.38244,-0.0132 2.87261,0.0568 3.31147,0.15546 l 0.79793,0.17943 -0.0988,-1.95648 c -0.23802,-4.71352 2.36264,-8.97644 6.82359,-11.18505 1.92783,-0.95446 2.03707,-0.97566 5.02709,-0.97566 2.89001,0 3.15379,0.0461 4.84462,0.84705 2.96895,1.40636 5.41632,4.06778 6.42533,6.98728 0.35162,1.01739 0.66815,1.32942 2.55112,2.51486 l 2.14968,1.35336 -2.15929,1.38513 c -1.56356,1.00298 -2.2062,1.57856 -2.32929,2.08623 -0.34814,1.43588 -1.42397,3.53199 -2.59157,5.04938 -0.87728,1.14009 -1.20397,1.80486 -1.20397,2.44995 0,1.2718 -0.94605,4.50414 -1.83023,6.25329 -2.15787,4.26888 -5.9356,7.75735 -10.07829,9.30661 l -1.58523,0.59284 v 2.34899 2.34899 h -2.11666 -2.11667 v -1.98438 -1.98437 l -1.25677,-0.004 c -0.69123,-0.002 -1.52467,-0.0754 -1.85209,-0.16315 -0.59235,-0.15874 -0.59531,-0.14426 -0.59531,2.91403 0,2.26918 -0.0866,3.08008 -0.33073,3.09848 -1.10852,0.0835 -3.07073,0.0965 -3.45305,0.0229 z m 4.65199,-16.17933 c -2.70676,-0.64327 -6.23546,-3.38389 -7.46823,-5.80032 -0.31935,-0.62598 -0.54257,-1.17425 -0.49604,-1.21836 0.0465,-0.0441 0.85851,-0.39487 1.8044,-0.77946 1.60201,-0.65137 1.73791,-0.66776 1.98437,-0.23926 0.64408,1.11979 2.64565,3.00611 3.73127,3.51641 0.65218,0.30656 1.71655,0.63013 2.36528,0.71905 l 1.17949,0.16167 v 1.94841 1.94841 l -1.12448,-0.0271 c -0.61846,-0.0149 -1.50769,-0.11816 -1.97606,-0.22947 z m 12.04766,-16.16537 c -2.29676,-1.71457 -1.01313,-5.27391 1.90196,-5.27391 0.90968,0 1.2725,0.16241 2.00967,0.89958 0.73748,0.73748 0.89959,1.09984 0.89959,2.01084 0,0.91099 -0.16211,1.27336 -0.89959,2.01083 -0.75186,0.75187 -1.08857,0.89821 -2.05052,0.8912 -0.72833,-0.005 -1.4117,-0.20305 -1.86111,-0.53854 z m 64.73059,-9.56463 c -6.53415,-12.12517 -16.64013,-23.16617 -28.34367,-30.96607 -9.41949,-6.27768 -21.49735,-11.09983 -32.633,-13.02891 -6.73021,-1.1659 -17.54082,-1.58625 -23.6918,-0.92121 -18.122133,1.95937 -34.323017,8.92957 -48.112894,20.69989 l -1.821368,1.55462 -0.88923,-0.86187 -0.889233,-0.86188 0.593931,-0.6424 c 0.326663,-0.35332 2.100255,-1.85279 3.941316,-3.33215 13.448101,-10.80609 28.931806,-17.16859 46.791158,-19.22724 3.56262,-0.41067 14.38863,-0.41379 17.99167,-0.005 10.65819,1.20868 19.93009,3.83134 29.50104,8.34467 14.17186,6.68297 27.90062,18.83276 36.52837,32.32717 2.03492,3.18274 4.61434,7.77688 4.61434,8.21845 0,0.23507 -1.64206,1.14074 -2.06826,1.14074 -0.10902,0 -0.78959,-1.09739 -1.51237,-2.43864 z"
       id="path4585"
       inkscape:connector-curvature="0" />
  </g>
</svg>
