<?xml version="1.0" encoding="UTF-8"?>
<!-- Generator: Adobe Illustrator 24.1.3, SVG Export Plug-In . SVG Version: 6.00 Build 0)  -->
<svg version="1.1" id="Layer_1" xmlns="http://www.w3.org/2000/svg" xmlns:xlink="http://www.w3.org/1999/xlink" x="0px" y="0px" viewBox="0 0 176.6 33" style="enable-background:new 0 0 176.6 33;" xml:space="preserve">
<style type="text/css">
	.st0{fill:#9FEF00;}
	.st1{fill:#FFFFFF;}
</style>
<path class="st0" d="M28.5,9.3C28.5,9.3,28.5,9.3,28.5,9.3c0-0.3-0.1-0.6-0.3-0.8c0,0,0,0,0,0c0,0,0,0-0.1-0.1c0,0-0.1,0-0.1-0.1  c0,0,0,0,0,0L15.5,1.2c0,0-0.1,0-0.1,0C15.3,1,15.1,1,14.9,1c-0.1,0-0.2,0-0.3,0.1c-0.1,0-0.1,0.1-0.2,0.1L2,8.3c0,0,0,0,0,0  c0,0,0,0,0,0c0,0,0,0,0,0C1.8,8.4,1.7,8.5,1.7,8.5c0,0,0,0,0,0C1.5,8.7,1.4,9,1.4,9.3c0,0,0,0,0,0c0,0,0,0,0,0v14.3  c0,0.4,0.2,0.8,0.6,1l12.4,7.1c0,0,0,0,0.1,0c0,0,0,0,0,0c0.1,0,0.1,0.1,0.2,0.1c0,0,0,0,0,0c0.1,0,0.2,0,0.2,0c0.1,0,0.2,0,0.2,0  c0,0,0,0,0,0c0.1,0,0.1,0,0.2-0.1c0,0,0,0,0,0c0,0,0,0,0.1,0l12.4-7.1c0.4-0.2,0.6-0.6,0.6-1L28.5,9.3C28.5,9.3,28.5,9.3,28.5,9.3z   M6.3,8.8L14.7,4c0.2-0.1,0.4-0.1,0.5,0l8.4,4.9C24,9,24,9.6,23.6,9.8l-8.4,4.9c-0.2,0.1-0.4,0.1-0.5,0L6.3,9.8  C5.9,9.6,5.9,9,6.3,8.8z M13.5,27.3c0,0.4-0.4,0.7-0.8,0.5l-8.4-4.9C4.1,22.8,4,22.6,4,22.5v-9.7c0-0.4,0.4-0.7,0.8-0.5l8.4,4.9  c0.2,0.1,0.3,0.3,0.3,0.5V27.3z M25.9,22.5c0,0.2-0.1,0.4-0.3,0.5l-8.4,4.9c-0.4,0.2-0.8-0.1-0.8-0.5v-9.7c0-0.2,0.1-0.4,0.3-0.5  l8.4-4.9c0.4-0.2,0.8,0.1,0.8,0.5V22.5z"/>
<desc>Created with Sketch.</desc>
<g>
	<path class="st1" d="M48.2,22.5v-4.6c0-0.2-0.1-0.3-0.3-0.3h-4c-0.2,0-0.3,0.1-0.3,0.3v4.6c0,0.2-0.1,0.3-0.3,0.3h-2.4   c-0.2,0-0.3-0.1-0.3-0.3V10.7c0-0.2,0.1-0.3,0.3-0.3h2.4c0.2,0,0.3,0.1,0.3,0.3v4.1c0,0.2,0.1,0.3,0.3,0.3h4c0.2,0,0.3-0.1,0.3-0.3   v-4.1c0-0.2,0.1-0.3,0.3-0.3H51c0.2,0,0.3,0.1,0.3,0.3v11.9c0,0.2-0.1,0.3-0.3,0.3h-2.4C48.4,22.8,48.2,22.7,48.2,22.5z"/>
	<path class="st1" d="M57.9,20.3l-0.7,2.2c0,0.1-0.2,0.2-0.3,0.2h-2.6c-0.2,0-0.3-0.2-0.3-0.4l4-11.9c0-0.1,0.2-0.2,0.3-0.2H62   c0.1,0,0.2,0.1,0.3,0.2l4,11.9c0.1,0.2-0.1,0.4-0.3,0.4h-2.6c-0.1,0-0.2-0.1-0.3-0.2l-0.7-2.2c0-0.1-0.2-0.2-0.3-0.2H58   C58.1,20.2,58,20.3,57.9,20.3z M61.5,16.8c-0.5-1.5-0.9-3-1.3-4.5l0,0c-0.4,1.5-0.8,3-1.2,4.5l-0.1,0.5c-0.1,0.2,0.1,0.4,0.3,0.4   h2.2c0.2,0,0.3-0.2,0.3-0.4L61.5,16.8z"/>
	<path class="st1" d="M79.2,14.9h-2.6c-0.1,0-0.3-0.1-0.3-0.2c-0.2-1.2-1-1.9-2.3-1.9c-1.6,0-2.7,1.5-2.7,3.9c0,2.4,1,3.9,2.6,3.9   c1.2,0,2.1-0.7,2.3-2c0-0.1,0.1-0.2,0.3-0.2h2.6c0.2,0,0.3,0.2,0.3,0.3c-0.4,2.9-2.4,4.5-5.5,4.5c-3.6,0-5.8-2.5-5.8-6.5   s2.2-6.5,5.8-6.5c3.1,0,5.1,1.7,5.4,4.4C79.5,14.7,79.4,14.9,79.2,14.9z"/>
	<path class="st1" d="M93.4,22.8h-3.1c-0.1,0-0.2,0-0.2-0.1L86.3,17l0,0v5.4c0,0.2-0.1,0.3-0.3,0.3h-2.4c-0.2,0-0.3-0.1-0.3-0.3   V10.7c0-0.2,0.1-0.3,0.3-0.3H86c0.2,0,0.3,0.1,0.3,0.3v5.1l0,0l3.6-5.2c0.1-0.1,0.1-0.1,0.2-0.1H93c0.2,0,0.4,0.3,0.2,0.5l-4,5.2   c-0.1,0.1-0.1,0.2,0,0.4l4.4,5.9C93.7,22.5,93.6,22.8,93.4,22.8z"/>
	<path class="st1" d="M101.8,12.1v10.4c0,0.2-0.1,0.3-0.3,0.3h-1c-0.2,0-0.3-0.1-0.3-0.3V12.1c0-0.2-0.1-0.3-0.3-0.3h-3.7   c-0.2,0-0.3-0.1-0.3-0.3v-0.9c0-0.2,0.1-0.3,0.3-0.3h9.5c0.2,0,0.3,0.1,0.3,0.3v0.9c0,0.2-0.1,0.3-0.3,0.3H102   C101.9,11.8,101.8,11.9,101.8,12.1z"/>
	<path class="st1" d="M117.3,22.5v-5.2c0-0.2-0.1-0.3-0.3-0.3h-5.8c-0.2,0-0.3,0.1-0.3,0.3v5.2c0,0.2-0.1,0.3-0.3,0.3h-1   c-0.2,0-0.3-0.1-0.3-0.3V10.7c0-0.2,0.1-0.3,0.3-0.3h1c0.2,0,0.3,0.1,0.3,0.3v4.7c0,0.2,0.1,0.3,0.3,0.3h5.8c0.2,0,0.3-0.1,0.3-0.3   v-4.7c0-0.2,0.1-0.3,0.3-0.3h1c0.2,0,0.3,0.1,0.3,0.3v11.9c0,0.2-0.1,0.3-0.3,0.3h-1C117.4,22.8,117.3,22.7,117.3,22.5z"/>
	<path class="st1" d="M125.5,12.1v3.3c0,0.2,0.1,0.3,0.3,0.3h5.5c0.2,0,0.3,0.1,0.3,0.3v0.8c0,0.2-0.1,0.3-0.3,0.3h-5.5   c-0.2,0-0.3,0.1-0.3,0.3V21c0,0.2,0.1,0.3,0.3,0.3h6c0.2,0,0.3,0.1,0.3,0.3v0.9c0,0.2-0.1,0.3-0.3,0.3h-7.6c-0.2,0-0.3-0.1-0.3-0.3   V10.7c0-0.2,0.1-0.3,0.3-0.3h7.4c0.2,0,0.3,0.1,0.3,0.3v0.9c0,0.2-0.1,0.3-0.3,0.3h-5.8C125.7,11.8,125.5,11.9,125.5,12.1z"/>
	<path class="st1" d="M141,10.4c3.1,0,4.5,1.3,4.5,3.2c0,1.5-0.7,2.3-2.1,2.8l0,0c1.6,0.4,2.4,1.3,2.4,2.9c0,2.1-1.7,3.5-4.5,3.5   h-4.9c-0.2,0-0.3-0.1-0.3-0.3V10.7c0-0.2,0.1-0.3,0.3-0.3H141z M139.1,15.1c0,0.2,0.1,0.3,0.3,0.3h1.3c1.3,0,1.9-0.4,1.9-1.4   s-0.6-1.3-1.8-1.3h-1.4c-0.2,0-0.3,0.1-0.3,0.3V15.1z M139.1,20.2c0,0.2,0.1,0.3,0.3,0.3h1.4c1.4,0,2-0.4,2-1.4s-0.6-1.5-2-1.5   h-1.3c-0.2,0-0.3,0.1-0.3,0.3L139.1,20.2L139.1,20.2z"/>
	<path class="st1" d="M160.8,16.5c0,4-2.3,6.5-6,6.5s-6-2.5-6-6.5s2.3-6.5,6-6.5C158.4,10.1,160.8,12.6,160.8,16.5z M151.9,16.5   c0,2.4,1,3.9,2.9,3.9c1.8,0,2.8-1.4,2.8-3.9s-1-3.9-2.8-3.9C152.9,12.7,151.9,14.2,151.9,16.5z"/>
	<path class="st1" d="M173.4,22.8h-2.9c-0.1,0-0.2-0.1-0.3-0.2l-2.2-4.1l0,0l-2.2,4.1c-0.1,0.1-0.1,0.2-0.3,0.2h-2.9   c-0.2,0-0.4-0.2-0.2-0.4l3.5-5.8c0.1-0.1,0.1-0.2,0-0.3l-3.3-5.5c-0.1-0.2,0-0.4,0.2-0.4h2.8c0.1,0,0.2,0.1,0.3,0.2l2,4l0,0l2-4   c0-0.1,0.2-0.2,0.3-0.2h2.8c0.2,0,0.4,0.2,0.2,0.4l-3.3,5.5c-0.1,0.1-0.1,0.2,0,0.3l3.5,5.8C173.8,22.5,173.7,22.8,173.4,22.8z"/>
</g>
</svg>